<svg xmlns="http://www.w3.org/2000/svg" version="1.1" xmlns:xlink="http://www.w3.org/1999/xlink" xmlns:svgjs="http://svgjs.dev/svgjs" width="1500" height="371" viewBox="0 0 1500 371"><g transform="matrix(1,0,0,1,-0.9090909090909918,-1.5237333869043823)"><svg viewBox="0 0 396 98" data-background-color="#2f2a29" preserveAspectRatio="xMidYMid meet" height="371" width="1500" xmlns="http://www.w3.org/2000/svg" xmlns:xlink="http://www.w3.org/1999/xlink"><g id="tight-bounds" transform="matrix(1,0,0,1,0.2400000000000091,0.4024956116351177)"><svg viewBox="0 0 395.52 97.19500877672974" height="97.19500877672974" width="395.52"><g><svg viewBox="0 0 544.2810015163824 133.7515086958739" height="97.19500877672974" width="395.52"><g transform="matrix(1,0,0,1,0,18.48519403828648)"><svg viewBox="0 0 395.52 96.78112061930094" height="96.78112061930094" width="395.52"><g id="textblocktransform"><svg viewBox="0 0 395.52 96.78112061930094" height="96.78112061930094" width="395.52" id="textblock"><g><svg viewBox="0 0 395.52 63.5790712334524" height="63.5790712334524" width="395.52"><g transform="matrix(1,0,0,1,0,0)"><svg width="395.52" viewBox="4.69 -36.74 232.35 37.35" height="63.5790712334524" data-palette-color="#e84613"><path d="M15.36 0L4.69 0 4.69-33.84 14.58-33.84Q19.75-33.84 22.96-31.9 26.17-29.96 26.17-25.56L26.17-25.56Q26.17-23.05 24.87-21.03 23.56-19.02 21.17-18.24L21.17-18.24 21.17-18.02Q24.22-17.41 26.17-15.39 28.13-13.38 28.13-9.89L28.13-9.89Q28.13-6.59 26.51-4.39 24.9-2.2 22.02-1.1 19.14 0 15.36 0L15.36 0ZM8.69-30.59L8.69-19.36 13.79-19.36Q18.24-19.36 20.21-20.89 22.19-22.41 22.19-25.02L22.19-25.02Q22.19-28.08 20.13-29.33 18.07-30.59 14.01-30.59L14.01-30.59 8.69-30.59ZM8.69-16.28L8.69-3.17 14.72-3.17Q19.17-3.17 21.67-4.85 24.17-6.52 24.17-9.99L24.17-9.99Q24.17-13.18 21.7-14.73 19.24-16.28 14.72-16.28L14.72-16.28 8.69-16.28ZM44.14 0.61L44.14 0.61Q41.11 0.61 38.49-0.93 35.86-2.47 34.26-5.38 32.66-8.3 32.66-12.45L32.66-12.45Q32.66-16.63 34.26-19.57 35.86-22.51 38.49-24.06 41.11-25.61 44.14-25.61L44.14-25.61Q47.21-25.61 49.85-24.06 52.49-22.51 54.09-19.57 55.69-16.63 55.69-12.45L55.69-12.45Q55.69-8.3 54.09-5.38 52.49-2.47 49.85-0.93 47.21 0.61 44.14 0.61ZM44.14-2.66L44.14-2.66Q47.48-2.66 49.56-5.36 51.63-8.06 51.63-12.45L51.63-12.45Q51.63-16.87 49.56-19.59 47.48-22.31 44.14-22.31L44.14-22.31Q41.97-22.31 40.28-21.07 38.6-19.82 37.66-17.61 36.72-15.41 36.72-12.45L36.72-12.45Q36.72-8.06 38.79-5.36 40.87-2.66 44.14-2.66ZM72.02 0.61L72.02 0.61Q68.99 0.61 66.36-0.93 63.74-2.47 62.14-5.38 60.54-8.3 60.54-12.45L60.54-12.45Q60.54-16.63 62.14-19.57 63.74-22.51 66.36-24.06 68.99-25.61 72.02-25.61L72.02-25.61Q75.09-25.61 77.73-24.06 80.37-22.51 81.97-19.57 83.56-16.63 83.56-12.45L83.56-12.45Q83.56-8.3 81.97-5.38 80.37-2.47 77.73-0.93 75.09 0.61 72.02 0.61ZM72.02-2.66L72.02-2.66Q75.36-2.66 77.44-5.36 79.51-8.06 79.51-12.45L79.51-12.45Q79.51-16.87 77.44-19.59 75.36-22.31 72.02-22.31L72.02-22.31Q69.84-22.31 68.16-21.07 66.47-19.82 65.53-17.61 64.59-15.41 64.59-12.45L64.59-12.45Q64.59-8.06 66.67-5.36 68.75-2.66 72.02-2.66ZM94.18 0L90.28 0 90.28-36.74 94.18-36.74 94.18-11.57 94.33-11.57 105.22-24.98 109.64-24.98 101.29-14.94 110.78 0 106.46 0 99.04-12.21 94.18-6.64 94.18 0ZM142.64 0L138.07 0 127.4-33.84 131.63-33.84 137.02-15.28Q137.88-12.33 138.62-9.7 139.37-7.08 140.32-4.1L140.32-4.1 140.54-4.1Q141.52-7.08 142.21-9.7 142.91-12.33 143.84-15.28L143.84-15.28 149.55-33.84 153.67-33.84 142.64 0ZM163.71 0.61L163.71 0.61Q160.58 0.61 158.48-1.21 156.38-3.03 156.38-6.42L156.38-6.42Q156.38-10.52 160.1-12.72 163.83-14.92 171.86-15.82L171.86-15.82Q171.86-17.48 171.41-18.97 170.96-20.46 169.82-21.41 168.69-22.36 166.59-22.36L166.59-22.36Q164.36-22.36 162.42-21.51 160.48-20.65 159.02-19.73L159.02-19.73 157.48-22.36Q159.14-23.51 161.67-24.56 164.19-25.61 167.22-25.61L167.22-25.61Q171.79-25.61 173.8-22.8 175.82-20 175.82-15.41L175.82-15.41 175.82 0 172.52 0 172.2-3.03 172.06-3.03Q170.25-1.54 168.14-0.46 166.03 0.61 163.71 0.61ZM164.78-2.56L164.78-2.56Q166.66-2.56 168.31-3.44 169.96-4.32 171.86-5.96L171.86-5.96 171.86-13.18Q167.54-12.65 165-11.77 162.46-10.89 161.36-9.64 160.26-8.4 160.26-6.74L160.26-6.74Q160.26-4.52 161.58-3.54 162.9-2.56 164.78-2.56ZM191.1 0.61L191.1 0.61Q187.17 0.61 185.32-1.86 183.48-4.32 183.48-9.11L183.48-9.11 183.48-24.98 187.38-24.98 187.38-9.62Q187.38-6.08 188.54-4.46 189.7-2.83 192.29-2.83L192.29-2.83Q194.25-2.83 195.8-3.85 197.35-4.86 199.2-7.15L199.2-7.15 199.2-24.98 203.11-24.98 203.11 0 199.86 0 199.52-3.96 199.35-3.96Q197.61-1.9 195.64-0.65 193.66 0.61 191.1 0.61ZM216 0.61L216 0.61Q213.75 0.61 212.74-0.77 211.72-2.15 211.72-4.79L211.72-4.79 211.72-36.74 215.68-36.74 215.68-4.47Q215.68-3.47 216.04-3.06 216.41-2.66 216.92-2.66L216.92-2.66Q217.12-2.66 217.3-2.67 217.48-2.69 217.8-2.76L217.8-2.76 218.31 0.2Q217.9 0.37 217.31 0.49 216.73 0.61 216 0.61ZM232.4 0.61L232.4 0.61Q228.47 0.61 226.93-1.66 225.39-3.93 225.39-7.62L225.39-7.62 225.39-21.73 221.68-21.73 221.68-24.78 225.61-24.98 226.08-33.08 229.37-33.08 229.37-24.98 236.23-24.98 236.23-21.73 229.37-21.73 229.37-7.52Q229.37-5.2 230.23-3.91 231.08-2.61 233.28-2.61L233.28-2.61Q233.94-2.61 234.67-2.75 235.4-2.88 236.16-3.22L236.16-3.22 237.04-0.44Q236.04 0 234.84 0.31 233.64 0.61 232.4 0.61Z" opacity="1" transform="matrix(1,0,0,1,0,0)" fill="#e84613" class="wordmark-text-0" data-fill-palette-color="primary" id="text-0"></path></svg></g></svg></g><g transform="matrix(1,0,0,1,163.310208,78.58856405396091)"><svg viewBox="0 0 232.209792 18.192556565340016" height="18.192556565340016" width="232.209792"><g transform="matrix(1,0,0,1,0,0)"><svg width="232.209792" viewBox="2.25 -37.9 638.13 50" height="18.192556565340016" data-palette-color="#e84613"><path d="M22.55-33.45L21.85-29.4Q20.65-29.7 19.35-29.95L19.35-29.95Q18.2-30.2 16.73-30.38 15.25-30.55 13.65-30.55L13.65-30.55Q9.95-30.55 8.35-29.43 6.75-28.3 6.75-25.95L6.75-25.95Q6.8-24.1 8.1-22.83 9.4-21.55 11.35-20.48 13.3-19.4 15.63-18.38 17.95-17.35 19.9-16.03 21.85-14.7 23.18-12.93 24.5-11.15 24.5-8.6L24.5-8.6Q24.5-5.65 23.23-3.85 21.95-2.05 20-1.05 18.05-0.05 15.73 0.3 13.4 0.65 11.3 0.65L11.3 0.65Q9.3 0.65 7.65 0.4 6 0.15 4.8-0.15L4.8-0.15Q3.4-0.5 2.25-0.95L2.25-0.95 3.25-5Q4.4-4.5 5.7-4.15L5.7-4.15Q6.85-3.85 8.28-3.6 9.7-3.35 11.3-3.35L11.3-3.35Q13.25-3.35 14.88-3.6 16.5-3.85 17.7-4.4 18.9-4.95 19.58-5.85 20.25-6.75 20.25-8.05L20.25-8.05Q20.2-10 18.98-11.23 17.75-12.45 15.73-13.58 13.7-14.7 11.38-15.75 9.05-16.8 7.1-18.15 5.15-19.5 3.83-21.35 2.5-23.2 2.5-25.95L2.5-25.95Q2.5-27.55 3.05-29.1 3.6-30.65 4.93-31.85 6.25-33.05 8.38-33.8 10.5-34.55 13.65-34.55L13.65-34.55Q15.45-34.55 17.07-34.38 18.7-34.2 19.9-34L19.9-34Q21.3-33.75 22.55-33.45L22.55-33.45ZM47.75-3.95L48.5-0.6Q47.35-0.25 46.12 0 44.9 0.25 43.42 0.45 41.95 0.65 40.35 0.65L40.35 0.65Q37.85 0.65 35.7-0.05 33.55-0.75 31.95-2.3 30.35-3.85 29.42-6.33 28.5-8.8 28.5-12.4L28.5-12.4Q28.5-15.65 29.4-18.13 30.3-20.6 31.87-22.28 33.45-23.95 35.57-24.8 37.7-25.65 40.2-25.65L40.2-25.65Q42.65-25.65 44.45-24.7 46.25-23.75 47.42-22.13 48.6-20.5 49.17-18.32 49.75-16.15 49.75-13.75L49.75-13.75 49-11.55 32.85-11.55Q32.85-10 33.25-8.45 33.65-6.9 34.62-5.65 35.6-4.4 37.17-3.63 38.75-2.85 41.1-2.85L41.1-2.85Q42.6-2.85 43.85-3.03 45.1-3.2 46.02-3.43 46.95-3.65 47.75-3.95L47.75-3.95ZM33-14.75L45.6-14.75Q45.6-15.1 45.45-16.3 45.3-17.5 44.75-18.8 44.2-20.1 43.05-21.13 41.9-22.15 40-22.15L40-22.15Q37.9-22.15 36.55-21.28 35.2-20.4 34.4-19.2 33.6-18 33.3-16.75 33-15.5 33-14.75L33-14.75ZM69.19-5.85L69.19-11.55Q68.19-11.5 67.3-11.45 66.39-11.4 65.52-11.33 64.64-11.25 63.95-11.15L63.95-11.15Q60.34-10.7 58.84-9.58 57.34-8.45 57.34-6.35L57.34-6.35Q57.34-4.6 58.42-3.73 59.49-2.85 61.24-2.85L61.24-2.85Q63.64-2.85 65.52-3.68 67.39-4.5 69.19-5.85L69.19-5.85ZM69.64 0.4L69.14-2.35Q66.8-1 64.77-0.18 62.74 0.65 60.39 0.65L60.39 0.65Q57.05 0.65 55.07-0.98 53.09-2.6 53.09-6.35L53.09-6.35Q53.09-8.3 54.09-9.75 55.09-11.2 56.72-12.18 58.34-13.15 60.39-13.7 62.45-14.25 64.59-14.4L64.59-14.4Q65.5-14.5 66.94-14.58 68.39-14.65 69.19-14.7L69.19-14.7Q69.19-16.45 69.09-17.82 69-19.2 68.5-20.18 68-21.15 67.02-21.65 66.05-22.15 64.25-22.15L64.25-22.15Q62.8-22.15 61.45-21.98 60.09-21.8 59.05-21.6L59.05-21.6Q57.8-21.35 56.74-21.05L56.74-21.05 55.95-24.5Q57.2-24.8 58.64-25.05L58.64-25.05Q59.89-25.3 61.55-25.48 63.2-25.65 65.09-25.65L65.09-25.65Q67.64-25.65 69.22-24.9 70.8-24.15 71.67-22.88 72.55-21.6 72.87-19.98 73.19-18.35 73.19-16.55L73.19-16.55 73.19-4.55Q73.19-3.85 73.22-3.08 73.25-2.3 73.32-1.55 73.39-0.8 73.5 0L73.5 0 69.64 0.4ZM80.29 0L80.29-21.1Q80.29-22.25 80.04-24.7L80.04-24.7 83.74-25.2 84.14-21.55 84.19-21.55Q85.09-22.7 85.94-23.55 86.79-24.4 87.72-25.03 88.64-25.65 89.49-25.65L89.49-25.65Q90.64-25.7 92.69-25.4L92.69-25.4 91.79-21.55Q90.14-21.85 89.49-21.8L89.49-21.8Q88.64-21.8 87.69-21 86.74-20.2 86.04-19.3L86.04-19.3Q85.14-18.2 84.29-16.8L84.29-16.8 84.29 0 80.29 0ZM112.74-24.85L111.94-21.5Q111.09-21.7 109.59-21.93 108.09-22.15 106.54-22.15L106.54-22.15Q104.29-22.15 102.87-21.25 101.44-20.35 100.64-18.93 99.84-17.5 99.54-15.78 99.24-14.05 99.24-12.4L99.24-12.4Q99.24-9.85 99.89-8.03 100.54-6.2 101.62-5.05 102.69-3.9 104.09-3.38 105.49-2.85 107.04-2.85L107.04-2.85Q108.09-2.85 109.07-2.98 110.04-3.1 110.87-3.28 111.69-3.45 112.44-3.7L112.44-3.7 113.24-0.35Q112.19-0.05 111.29 0.15 110.39 0.35 109.17 0.5 107.94 0.65 106.54 0.65L106.54 0.65Q103.79 0.65 101.64-0.05 99.49-0.75 98.02-2.3 96.54-3.85 95.77-6.35 94.99-8.85 94.99-12.45L94.99-12.45Q94.99-15.95 95.97-18.48 96.94-21 98.54-22.58 100.14-24.15 102.22-24.9 104.29-25.65 106.54-25.65L106.54-25.65Q107.74-25.65 108.87-25.53 109.99-25.4 110.84-25.25L110.84-25.25Q111.84-25.05 112.74-24.85L112.74-24.85ZM118.19 0L118.19-37.45 122.19-37.9 122.19-22Q123.69-23 125.16-23.75 126.64-24.5 128.19-25.08 129.74-25.65 131.19-25.65L131.19-25.65Q133.24-25.65 134.61-25.18 135.99-24.7 136.84-23.6 137.69-22.5 138.06-20.7 138.44-18.9 138.44-16.2L138.44-16.2 138.44 0 134.44 0 134.44-15.75Q134.44-17.25 134.39-18.43 134.34-19.6 133.96-20.43 133.59-21.25 132.81-21.7 132.04-22.15 130.64-22.15L130.64-22.15Q129.34-22.15 127.84-21.58 126.34-21 124.99-20.25 123.64-19.5 122.19-18.5L122.19-18.5 122.19 0 118.19 0ZM159.08 0L159.08-21.9 154.43-21.9 154.43-25.15 159.08-25.15Q159.08-28.65 159.56-31.08 160.03-33.5 161.08-35.02 162.13-36.55 163.78-37.23 165.43-37.9 167.78-37.9L167.78-37.9Q169.68-37.9 171.33-37.27 172.98-36.65 173.98-35.75L173.98-35.75 172.23-32.75Q171.23-33.5 170.16-33.95 169.08-34.4 167.83-34.4L167.83-34.4Q166.18-34.4 165.23-33.68 164.28-32.95 163.81-31.7 163.33-30.45 163.21-28.78 163.08-27.1 163.08-25.15L163.08-25.15 169.33-25.15 169.33-21.9 163.08-21.9 163.08 0 159.08 0ZM176.33-12.45L176.33-12.45Q176.33-7.6 178.51-5.23 180.68-2.85 184.38-2.85L184.38-2.85Q188.03-2.85 190.08-5.2 192.13-7.55 192.13-12.25L192.13-12.25Q192.13-17.25 189.96-19.7 187.78-22.15 184.03-22.15L184.03-22.15Q180.28-22.15 178.31-19.73 176.33-17.3 176.33-12.45ZM172.08-12.5L172.08-12.5Q172.08-16.3 173.28-18.82 174.48-21.35 176.33-22.88 178.18-24.4 180.31-25.03 182.43-25.65 184.33-25.65L184.33-25.65Q186.13-25.65 188.26-25.08 190.38-24.5 192.18-23.03 193.98-21.55 195.18-19.07 196.38-16.6 196.38-12.8L196.38-12.8Q196.38-8.85 195.16-6.25 193.93-3.65 192.08-2.13 190.23-0.6 188.08 0.03 185.93 0.65 184.08 0.65L184.08 0.65Q182.18 0.65 180.08 0.05 177.98-0.55 176.21-2.02 174.43-3.5 173.26-6.05 172.08-8.6 172.08-12.5ZM202.23 0L202.23-21.1Q202.23-22.25 201.98-24.7L201.98-24.7 205.68-25.2 206.08-21.55 206.13-21.55Q207.03-22.7 207.88-23.55 208.73-24.4 209.65-25.03 210.58-25.65 211.43-25.65L211.43-25.65Q212.58-25.7 214.63-25.4L214.63-25.4 213.73-21.55Q212.08-21.85 211.43-21.8L211.43-21.8Q210.58-21.8 209.63-21 208.68-20.2 207.98-19.3L207.98-19.3Q207.08-18.2 206.23-16.8L206.23-16.8 206.23 0 202.23 0ZM237.27-0.65L227.22-25.15 231.47-25.15 236.17-13.8Q236.87-12.15 237.45-10.5 238.02-8.85 238.47-7.55L238.47-7.55Q239.02-6 239.42-4.55L239.42-4.55 239.47-4.55Q239.92-6 240.47-7.55L240.47-7.55Q240.92-8.85 241.52-10.5 242.12-12.15 242.77-13.8L242.77-13.8 247.12-25.15 251.32-25.15 239.42 4.85Q238.72 6.7 237.6 8.05 236.47 9.4 235.42 10.3L235.42 10.3Q234.17 11.35 232.82 12.1L232.82 12.1 230.87 8.65Q231.92 8.15 232.82 7.4L232.82 7.4Q233.62 6.75 234.42 5.78 235.22 4.8 235.72 3.45L235.72 3.45 237.27-0.65ZM257.92-12.45L257.92-12.45Q257.92-7.6 260.1-5.23 262.27-2.85 265.97-2.85L265.97-2.85Q269.62-2.85 271.67-5.2 273.72-7.55 273.72-12.25L273.72-12.25Q273.72-17.25 271.55-19.7 269.37-22.15 265.62-22.15L265.62-22.15Q261.87-22.15 259.9-19.73 257.92-17.3 257.92-12.45ZM253.67-12.5L253.67-12.5Q253.67-16.3 254.87-18.82 256.07-21.35 257.92-22.88 259.77-24.4 261.9-25.03 264.02-25.65 265.92-25.65L265.92-25.65Q267.72-25.65 269.85-25.08 271.97-24.5 273.77-23.03 275.57-21.55 276.77-19.07 277.97-16.6 277.97-12.8L277.97-12.8Q277.97-8.85 276.75-6.25 275.52-3.65 273.67-2.13 271.82-0.6 269.67 0.03 267.52 0.65 265.67 0.65L265.67 0.65Q263.77 0.65 261.67 0.05 259.57-0.55 257.8-2.02 256.02-3.5 254.85-6.05 253.67-8.6 253.67-12.5ZM299.12 0.4L298.82-2.75 298.72-2.75Q298.27-2.4 297.42-1.83 296.57-1.25 295.47-0.7 294.37-0.15 293.04 0.25 291.72 0.65 290.37 0.65L290.37 0.65Q288.52 0.65 287.22 0.18 285.92-0.3 285.12-1.4 284.32-2.5 283.97-4.3 283.62-6.1 283.62-8.8L283.62-8.8 283.62-25.15 287.62-25.15 287.62-9.4Q287.62-7.9 287.67-6.7 287.72-5.5 288.02-4.65 288.32-3.8 288.99-3.33 289.67-2.85 290.92-2.85L290.92-2.85Q292.22-2.85 293.62-3.4 295.02-3.95 296.17-4.65L296.17-4.65Q297.52-5.45 298.82-6.45L298.82-6.45 298.82-25.15 302.82-25.15 302.82-3.25Q302.87-1.45 303.07 0L303.07 0 299.12 0.4ZM310.12 0L310.12-21.1Q310.12-22.25 309.87-24.7L309.87-24.7 313.57-25.2 313.97-21.55 314.02-21.55Q314.92-22.7 315.77-23.55 316.62-24.4 317.54-25.03 318.47-25.65 319.32-25.65L319.32-25.65Q320.47-25.7 322.52-25.4L322.52-25.4 321.62-21.55Q319.97-21.85 319.32-21.8L319.32-21.8Q318.47-21.8 317.52-21 316.57-20.2 315.87-19.3L315.87-19.3Q314.97-18.2 314.12-16.8L314.12-16.8 314.12 0 310.12 0ZM340.51 0L340.51-21.9 335.86-21.9 335.86-25.15 340.51-25.15Q340.51-28.65 340.99-31.08 341.46-33.5 342.51-35.02 343.56-36.55 345.21-37.23 346.86-37.9 349.21-37.9L349.21-37.9Q351.11-37.9 352.76-37.27 354.41-36.65 355.41-35.75L355.41-35.75 353.66-32.75Q352.66-33.5 351.59-33.95 350.51-34.4 349.26-34.4L349.26-34.4Q347.61-34.4 346.66-33.68 345.71-32.95 345.24-31.7 344.76-30.45 344.64-28.78 344.51-27.1 344.51-25.15L344.51-25.15 350.76-25.15 350.76-21.9 344.51-21.9 344.51 0 340.51 0ZM369.06-5.85L369.06-11.55Q368.06-11.5 367.16-11.45 366.26-11.4 365.38-11.33 364.51-11.25 363.81-11.15L363.81-11.15Q360.21-10.7 358.71-9.58 357.21-8.45 357.21-6.35L357.21-6.35Q357.21-4.6 358.28-3.73 359.36-2.85 361.11-2.85L361.11-2.85Q363.51-2.85 365.38-3.68 367.26-4.5 369.06-5.85L369.06-5.85ZM369.51 0.4L369.01-2.35Q366.66-1 364.63-0.18 362.61 0.65 360.26 0.65L360.26 0.65Q356.91 0.65 354.93-0.98 352.96-2.6 352.96-6.35L352.96-6.35Q352.96-8.3 353.96-9.75 354.96-11.2 356.58-12.18 358.21-13.15 360.26-13.7 362.31-14.25 364.46-14.4L364.46-14.4Q365.36-14.5 366.81-14.58 368.26-14.65 369.06-14.7L369.06-14.7Q369.06-16.45 368.96-17.82 368.86-19.2 368.36-20.18 367.86-21.15 366.88-21.65 365.91-22.15 364.11-22.15L364.11-22.15Q362.66-22.15 361.31-21.98 359.96-21.8 358.91-21.6L358.91-21.6Q357.66-21.35 356.61-21.05L356.61-21.05 355.81-24.5Q357.06-24.8 358.51-25.05L358.51-25.05Q359.76-25.3 361.41-25.48 363.06-25.65 364.96-25.65L364.96-25.65Q367.51-25.65 369.08-24.9 370.66-24.15 371.53-22.88 372.41-21.6 372.73-19.98 373.06-18.35 373.06-16.55L373.06-16.55 373.06-4.55Q373.06-3.85 373.08-3.08 373.11-2.3 373.18-1.55 373.26-0.8 373.36 0L373.36 0 369.51 0.4ZM386.06 0L376.81-25.15 381.21-25.15 387.31-7.4 388.41-3.45 388.46-3.45 389.61-7.4 396.11-25.15 400.31-25.15 390.56 0 386.06 0ZM406.95-12.45L406.95-12.45Q406.95-7.6 409.13-5.23 411.3-2.85 415-2.85L415-2.85Q418.65-2.85 420.7-5.2 422.75-7.55 422.75-12.25L422.75-12.25Q422.75-17.25 420.58-19.7 418.4-22.15 414.65-22.15L414.65-22.15Q410.9-22.15 408.93-19.73 406.95-17.3 406.95-12.45ZM402.7-12.5L402.7-12.5Q402.7-16.3 403.9-18.82 405.1-21.35 406.95-22.88 408.8-24.4 410.93-25.03 413.05-25.65 414.95-25.65L414.95-25.65Q416.75-25.65 418.88-25.08 421-24.5 422.8-23.03 424.6-21.55 425.8-19.07 427-16.6 427-12.8L427-12.8Q427-8.85 425.78-6.25 424.55-3.65 422.7-2.13 420.85-0.6 418.7 0.03 416.55 0.65 414.7 0.65L414.7 0.65Q412.8 0.65 410.7 0.05 408.6-0.55 406.83-2.02 405.05-3.5 403.88-6.05 402.7-8.6 402.7-12.5ZM432.85 0L432.85-21.1Q432.85-22.25 432.6-24.7L432.6-24.7 436.3-25.2 436.7-21.55 436.75-21.55Q437.65-22.7 438.5-23.55 439.35-24.4 440.28-25.03 441.2-25.65 442.05-25.65L442.05-25.65Q443.2-25.7 445.25-25.4L445.25-25.4 444.35-21.55Q442.7-21.85 442.05-21.8L442.05-21.8Q441.2-21.8 440.25-21 439.3-20.2 438.6-19.3L438.6-19.3Q437.7-18.2 436.85-16.8L436.85-16.8 436.85 0 432.85 0ZM449.65 0L449.65-25.2 453.65-25.65 453.65 0 449.65 0ZM449-32.35L449-32.35Q449-33.5 449.77-34.27 450.55-35.05 451.7-35.05L451.7-35.05Q452.9-35.05 453.72-34.27 454.55-33.5 454.55-32.35L454.55-32.35Q454.55-31.2 453.72-30.43 452.9-29.65 451.7-29.65L451.7-29.65Q450.55-29.65 449.77-30.43 449-31.2 449-32.35ZM462.7-32.15L466.7-32.65 466.7-25.15 473.95-25.15 473.95-21.9 466.7-21.9 466.7-8.55Q466.7-6.9 466.77-5.8 466.85-4.7 467.1-4.05 467.35-3.4 467.8-3.13 468.25-2.85 468.95-2.85L468.95-2.85Q470.85-2.9 473.35-4.25L473.35-4.25 474.55-1.2Q472.9-0.1 471.47 0.28 470.05 0.65 468.65 0.65L468.65 0.65Q465.35 0.65 464.02-1.23 462.7-3.1 462.7-7.45L462.7-7.45 462.7-21.9 458.1-21.9 458.1-25.15 462.7-25.15 462.7-32.15ZM496.69-3.95L497.44-0.6Q496.29-0.25 495.07 0 493.84 0.25 492.37 0.45 490.89 0.65 489.29 0.65L489.29 0.65Q486.79 0.65 484.64-0.05 482.49-0.75 480.89-2.3 479.29-3.85 478.37-6.33 477.44-8.8 477.44-12.4L477.44-12.4Q477.44-15.65 478.34-18.13 479.24-20.6 480.82-22.28 482.39-23.95 484.52-24.8 486.64-25.65 489.14-25.65L489.14-25.65Q491.59-25.65 493.39-24.7 495.19-23.75 496.37-22.13 497.54-20.5 498.12-18.32 498.69-16.15 498.69-13.75L498.69-13.75 497.94-11.55 481.79-11.55Q481.79-10 482.19-8.45 482.59-6.9 483.57-5.65 484.54-4.4 486.12-3.63 487.69-2.85 490.04-2.85L490.04-2.85Q491.54-2.85 492.79-3.03 494.04-3.2 494.97-3.43 495.89-3.65 496.69-3.95L496.69-3.95ZM481.94-14.75L494.54-14.75Q494.54-15.1 494.39-16.3 494.24-17.5 493.69-18.8 493.14-20.1 491.99-21.13 490.84-22.15 488.94-22.15L488.94-22.15Q486.84-22.15 485.49-21.28 484.14-20.4 483.34-19.2 482.54-18 482.24-16.75 481.94-15.5 481.94-14.75L481.94-14.75ZM515.54-1.5L515.54-37.45 519.54-37.9 519.54-23Q520.64-23.75 521.84-24.3L521.84-24.3Q522.84-24.8 524.09-25.23 525.34-25.65 526.59-25.65L526.59-25.65Q528.64-25.65 530.46-24.85 532.29-24.05 533.66-22.45 535.04-20.85 535.84-18.4 536.64-15.95 536.64-12.6L536.64-12.6Q536.64-8.9 535.61-6.38 534.59-3.85 532.86-2.3 531.14-0.75 528.94-0.05 526.74 0.65 524.44 0.65L524.44 0.65Q522.14 0.65 520.46 0.33 518.79 0 517.69-0.4L517.69-0.4Q516.39-0.9 515.54-1.5L515.54-1.5ZM519.54-19.4L519.54-3.7Q520.19-3.45 520.94-3.28 521.69-3.1 522.56-2.98 523.44-2.85 524.44-2.85L524.44-2.85Q526.74-2.85 528.29-3.5 529.84-4.15 530.74-5.4 531.64-6.65 532.01-8.43 532.39-10.2 532.39-12.4L532.39-12.4Q532.39-14.15 532.01-15.9 531.64-17.65 530.84-19.03 530.04-20.4 528.86-21.28 527.69-22.15 526.14-22.15L526.14-22.15Q525.09-22.15 523.94-21.73 522.79-21.3 521.79-20.75L521.79-20.75Q520.64-20.15 519.54-19.4L519.54-19.4ZM545.34-12.45L545.34-12.45Q545.34-7.6 547.51-5.23 549.68-2.85 553.38-2.85L553.38-2.85Q557.03-2.85 559.09-5.2 561.13-7.55 561.13-12.25L561.13-12.25Q561.13-17.25 558.96-19.7 556.78-22.15 553.03-22.15L553.03-22.15Q549.28-22.15 547.31-19.73 545.34-17.3 545.34-12.45ZM541.09-12.5L541.09-12.5Q541.09-16.3 542.28-18.82 543.49-21.35 545.34-22.88 547.18-24.4 549.31-25.03 551.43-25.65 553.34-25.65L553.34-25.65Q555.13-25.65 557.26-25.08 559.38-24.5 561.18-23.03 562.99-21.55 564.18-19.07 565.38-16.6 565.38-12.8L565.38-12.8Q565.38-8.85 564.16-6.25 562.93-3.65 561.09-2.13 559.24-0.6 557.09 0.03 554.93 0.65 553.09 0.65L553.09 0.65Q551.18 0.65 549.09 0.05 546.99-0.55 545.21-2.02 543.43-3.5 542.26-6.05 541.09-8.6 541.09-12.5ZM574.03-12.45L574.03-12.45Q574.03-7.6 576.21-5.23 578.38-2.85 582.08-2.85L582.08-2.85Q585.73-2.85 587.78-5.2 589.83-7.55 589.83-12.25L589.83-12.25Q589.83-17.25 587.66-19.7 585.48-22.15 581.73-22.15L581.73-22.15Q577.98-22.15 576.01-19.73 574.03-17.3 574.03-12.45ZM569.78-12.5L569.78-12.5Q569.78-16.3 570.98-18.82 572.18-21.35 574.03-22.88 575.88-24.4 578.01-25.03 580.13-25.65 582.03-25.65L582.03-25.65Q583.83-25.65 585.96-25.08 588.08-24.5 589.88-23.03 591.68-21.55 592.88-19.07 594.08-16.6 594.08-12.8L594.08-12.8Q594.08-8.85 592.86-6.25 591.63-3.65 589.78-2.13 587.93-0.6 585.78 0.03 583.63 0.65 581.78 0.65L581.78 0.65Q579.88 0.65 577.78 0.05 575.68-0.55 573.91-2.02 572.13-3.5 570.96-6.05 569.78-8.6 569.78-12.5ZM599.88 0L599.88-37.45 603.88-37.9 603.88-15.35 615.03-25.15 620.53-25.15 609.63-15.6 620.93 0 615.88 0 606.68-13.05 603.88-10.6 603.88 0 599.88 0ZM639.23-24.6L638.53-21.05Q636.43-21.7 634.8-21.93 633.18-22.15 631.83-22.15L631.83-22.15Q630.08-22.15 628.9-21.3 627.73-20.45 627.73-19.1L627.73-19.1Q627.78-17.9 628.78-17.05 629.78-16.2 631.1-15.53 632.43-14.85 634.05-14.05 635.68-13.25 637.1-12.25 638.53-11.25 639.43-9.85 640.33-8.45 640.38-6.5L640.38-6.5Q640.33-4.4 639.45-3.03 638.58-1.65 637.2-0.83 635.83 0 634.23 0.33 632.63 0.65 631.23 0.65L631.23 0.65Q629.43 0.65 627.5 0.45 625.58 0.25 623.38-0.4L623.38-0.4 624.13-4Q626.38-3.4 628.23-3.13 630.08-2.85 631.28-2.85L631.28-2.85Q632.18-2.85 633.05-3.05 633.93-3.25 634.63-3.63 635.33-4 635.75-4.6 636.18-5.2 636.18-5.95L636.18-5.95Q636.13-7.35 635.23-8.33 634.33-9.3 632.9-10.08 631.48-10.85 629.85-11.63 628.23-12.4 626.8-13.43 625.38-14.45 624.43-15.88 623.48-17.3 623.48-19.4L623.48-19.4Q623.48-20.9 624.25-22.08 625.03-23.25 626.25-24.03 627.48-24.8 628.95-25.23 630.43-25.65 631.83-25.65L631.83-25.65Q633.28-25.65 635.08-25.43 636.88-25.2 639.23-24.6L639.23-24.6Z" opacity="1" transform="matrix(1,0,0,1,0,0)" fill="#e84613" class="slogan-text-1" data-fill-palette-color="secondary" id="text-1"></path></svg></g></svg></g></svg></g></svg></g><g transform="matrix(1,0,0,1,410.5294928205085,0)"><svg viewBox="0 0 133.7515086958739 133.7515086958739" height="133.7515086958739" width="133.7515086958739"><g data-palette-color="#d6ecba"><rect width="36.55874571020553" height="133.7515086958739" fill="#d6ecba" stroke="transparent" data-fill-palette-color="accent" x="0" fill-opacity="1"></rect><rect width="36.55874571020553" height="133.7515086958739" fill="#d6ecba" stroke="transparent" data-fill-palette-color="accent" x="44.58383623195796" fill-opacity="0.75"></rect><rect width="36.55874571020553" height="133.7515086958739" fill="#d6ecba" stroke="transparent" data-fill-palette-color="accent" x="89.16767246391592" fill-opacity="0.5"></rect></g></svg></g></svg></g><defs></defs></svg><rect width="395.52" height="97.19500877672974" fill="none" stroke="none" visibility="hidden"></rect></g></svg></g></svg>